<svg xmlns="http://www.w3.org/2000/svg" xmlns:xlink="http://www.w3.org/1999/xlink" contentStyleType="text/css" data-diagram-type="DESCRIPTION" height="571px" preserveAspectRatio="none" style="width:684px;height:571px;background:#FFFFFF;" version="1.1" viewBox="0 0 684 571" width="684px" zoomAndPan="magnify"><defs/><g><!--cluster workstation--><g class="cluster" data-entity="workstation" data-source-line="24" data-uid="ent0002" id="cluster_workstation"><rect fill="#E3F2FD" height="185.48" rx="7.5" ry="7.5" style="stroke:#1976D2;stroke-width:1;" width="568" x="7" y="7"/><text fill="#000000" font-family="sans-serif" font-size="14" font-weight="bold" lengthAdjust="spacing" textLength="108.3291" x="236.8354" y="22.5352">WORKSTATION</text></g><!--cluster fedora--><g class="cluster" data-entity="fedora" data-source-line="25" data-uid="ent0003" id="cluster_fedora"><polygon fill="#FFF3E0" points="39,68,49,58,535,58,535,150.48,525,160.48,39,160.48,39,68" style="stroke:#F57C00;stroke-width:1;"/><line style="stroke:#F57C00;stroke-width:1;" x1="525" x2="535" y1="68" y2="58"/><line style="stroke:#F57C00;stroke-width:1;" x1="39" x2="525" y1="68" y2="68"/><line style="stroke:#F57C00;stroke-width:1;" x1="525" x2="525" y1="68" y2="160.48"/><text fill="#000000" font-family="sans-serif" font-size="14" font-weight="bold" lengthAdjust="spacing" textLength="187.4756" x="189.2622" y="84.5352">Fedora 42 (XFCE Desktop)</text></g><!--cluster server--><g class="cluster" data-entity="server" data-source-line="31" data-uid="ent0006" id="cluster_server"><rect fill="#E3F2FD" height="292.98" rx="7.5" ry="7.5" style="stroke:#1976D2;stroke-width:1;" width="420" x="155" y="272.48"/><text fill="#000000" font-family="sans-serif" font-size="14" font-weight="bold" lengthAdjust="spacing" textLength="170.3926" x="279.8037" y="288.0152">SERVER (VirtualBox VM)</text></g><!--cluster ubuntu--><g class="cluster" data-entity="ubuntu" data-source-line="32" data-uid="ent0007" id="cluster_ubuntu"><polygon fill="#FFF3E0" points="187,333.48,197,323.48,535,323.48,535,523.46,525,533.46,187,533.46,187,333.48" style="stroke:#F57C00;stroke-width:1;"/><line style="stroke:#F57C00;stroke-width:1;" x1="525" x2="535" y1="333.48" y2="323.48"/><line style="stroke:#F57C00;stroke-width:1;" x1="187" x2="525" y1="333.48" y2="333.48"/><line style="stroke:#F57C00;stroke-width:1;" x1="525" x2="525" y1="333.48" y2="533.46"/><text fill="#000000" font-family="sans-serif" font-size="14" font-weight="bold" lengthAdjust="spacing" textLength="258.5352" x="227.7324" y="350.0152">Ubuntu Server 24.04 LTS (Headless)</text></g><!--entity ssh_client--><g class="entity" data-entity="ssh_client" data-source-line="26" data-uid="ent0004" id="entity_ssh_client"><rect fill="#F1F1F1" height="46.4883" rx="2.5" ry="2.5" style="stroke:#181818;stroke-width:0.5;" width="182.8027" x="54.6" y="98"/><rect fill="#F1F1F1" height="10" style="stroke:#181818;stroke-width:0.5;" width="15" x="217.4027" y="103"/><rect fill="#F1F1F1" height="2" style="stroke:#181818;stroke-width:0.5;" width="4" x="215.4027" y="105"/><rect fill="#F1F1F1" height="2" style="stroke:#181818;stroke-width:0.5;" width="4" x="215.4027" y="109"/><text fill="#000000" font-family="sans-serif" font-size="14" lengthAdjust="spacing" textLength="142.8027" x="69.6" y="131.5352">SSH Client (Terminal)</text></g><!--entity browser--><g class="entity" data-entity="browser" data-source-line="27" data-uid="ent0005" id="entity_browser"><rect fill="#F1F1F1" height="46.4883" rx="2.5" ry="2.5" style="stroke:#181818;stroke-width:0.5;" width="246.7393" x="272.63" y="98"/><rect fill="#F1F1F1" height="10" style="stroke:#181818;stroke-width:0.5;" width="15" x="499.3693" y="103"/><rect fill="#F1F1F1" height="2" style="stroke:#181818;stroke-width:0.5;" width="4" x="497.3693" y="105"/><rect fill="#F1F1F1" height="2" style="stroke:#181818;stroke-width:0.5;" width="4" x="497.3693" y="109"/><text fill="#000000" font-family="sans-serif" font-size="14" lengthAdjust="spacing" textLength="206.7393" x="287.63" y="131.5352">Browser for testing web server</text></g><!--entity ssh_server--><g class="entity" data-entity="ssh_server" data-source-line="33" data-uid="ent0008" id="entity_ssh_server"><rect fill="#F1F1F1" height="46.4883" rx="2.5" ry="2.5" style="stroke:#181818;stroke-width:0.5;" width="111.6406" x="203.18" y="363.48"/><rect fill="#F1F1F1" height="10" style="stroke:#181818;stroke-width:0.5;" width="15" x="294.8206" y="368.48"/><rect fill="#F1F1F1" height="2" style="stroke:#181818;stroke-width:0.5;" width="4" x="292.8206" y="370.48"/><rect fill="#F1F1F1" height="2" style="stroke:#181818;stroke-width:0.5;" width="4" x="292.8206" y="374.48"/><text fill="#000000" font-family="sans-serif" font-size="14" lengthAdjust="spacing" textLength="71.6406" x="218.18" y="397.0152">SSH Server</text></g><!--entity apache--><g class="entity" data-entity="apache" data-source-line="34" data-uid="ent0009" id="entity_apache"><rect fill="#F1F1F1" height="46.4883" rx="2.5" ry="2.5" style="stroke:#181818;stroke-width:0.5;" width="169.1514" x="349.42" y="363.48"/><rect fill="#F1F1F1" height="10" style="stroke:#181818;stroke-width:0.5;" width="15" x="498.5714" y="368.48"/><rect fill="#F1F1F1" height="2" style="stroke:#181818;stroke-width:0.5;" width="4" x="496.5714" y="370.48"/><rect fill="#F1F1F1" height="2" style="stroke:#181818;stroke-width:0.5;" width="4" x="496.5714" y="374.48"/><text fill="#000000" font-family="sans-serif" font-size="14" lengthAdjust="spacing" textLength="129.1514" x="364.42" y="397.0152">Apache Web Server</text></g><!--entity mysql--><g class="entity" data-entity="mysql" data-source-line="35" data-uid="ent0010" id="entity_mysql"><rect fill="#F1F1F1" height="46.4883" rx="2.5" ry="2.5" style="stroke:#181818;stroke-width:0.5;" width="152.3486" x="202.83" y="470.97"/><rect fill="#F1F1F1" height="10" style="stroke:#181818;stroke-width:0.5;" width="15" x="335.1786" y="475.97"/><rect fill="#F1F1F1" height="2" style="stroke:#181818;stroke-width:0.5;" width="4" x="333.1786" y="477.97"/><rect fill="#F1F1F1" height="2" style="stroke:#181818;stroke-width:0.5;" width="4" x="333.1786" y="481.97"/><text fill="#000000" font-family="sans-serif" font-size="14" lengthAdjust="spacing" textLength="112.3486" x="217.83" y="504.5052">MySQL Database</text></g><!--link workstation to server--><g class="link" data-entity-1="workstation" data-entity-2="server" data-source-line="39" data-uid="lnk11" id="link_workstation_server"><path d="M567,193.7472 C567,194.2035 567,194.6609 567,195.1196 C567,198.7891 567,202.5353 567,206.3428 C567,221.5729 567,237.7847 567,253.9963 C567,258.0491 567,262.102 567,266.1395 C567,268.1583 567,264.1732 567,266.1824" fill="none" id="workstation-to-server" style="stroke:#1976D2;stroke-width:2;"/><polygon fill="#1976D2" points="567,272.1824,571,263.1824,567,267.1824,563,263.1824,567,272.1824" style="stroke:#1976D2;stroke-width:2;"/><text fill="#000000" font-family="sans-serif" font-size="13" lengthAdjust="spacing" textLength="82.0308" x="585.1514" y="230.0484">SSH (Port 22)</text><text fill="#000000" font-family="sans-serif" font-size="13" lengthAdjust="spacing" textLength="91.6538" x="576.2266" y="245.3589">HTTP (Port 80)</text></g><!--SRC=[TL9jRvim4FxEhxZIBoHQAqhJTQkqIGc1PLhQT43JITrKEN19BC3ERBEqclhV1pPHaZKr4a9tpyizXuyod5E640L-qh_vCWuU_Sbu4i5nS1vwuT0wQljn44s3QDCCm_0yS2rBvfIjY20b24mLOOi2uQy5zHcGD5y8Nh7CvmKN_-iR31SP2jC_Flju-NxewNfaQ8AXWBCBwsNNX_7iBOlT4L_hXnUNlkk-rdVtzOaGVDqQjCoUrpowaYnfcZEK4hnzMhqbKXKgmIVLB-Y2bSWKfFKBXMLjTsDtk_UJw5kSz9ElavjkrmOYOSr5BXLHbBFMM8UqGyou8D3pmFaH-W4CKUQAhpgQD3TDWszEoiiLPusj7SSZy0lQV3i9Yf8oKXYMbCl7L7SEyGPrT5dlP5wdLYWLPGjOumpgsXyKMc1c89hzqgnWBvlv0-1CgL0LAGRy2QRNdJQcKTbBU3UhcAeWDXslT-hsO9p4u8oGP4MzPZDrPM1lPestypK1ZT4XS7z5qYN2VPrfXqDqzH3- -Zd-FeOXKMH696fm-In_5zluk__kvA6znE_KvffyydwTVDualm8Re9dNkUL2WUTrVZA0KPBSjfKFRWV0jlu1]--></g></svg>